<?xml version="1.0" encoding="UTF-8"?>
<svg width="444px" height="379px" viewBox="0 0 444 379" version="1.1" xmlns="http://www.w3.org/2000/svg" xmlns:xlink="http://www.w3.org/1999/xlink">
    <title>Group 8</title>
    <defs>
        <text id="text-1" font-family="HelveticaNeue-Bold, Helvetica Neue" font-size="20" font-weight="bold" line-spacing="16" letter-spacing="0.263157904" fill="#FFFFFF">
            <tspan x="31.9592006" y="77.3971083">Discovery</tspan>
        </text>
        <filter x="-5.0%" y="-31.2%" width="114.1%" height="212.5%" filterUnits="objectBoundingBox" id="filter-2">
            <feOffset dx="2" dy="2" in="SourceAlpha" result="shadowOffsetOuter1"></feOffset>
            <feGaussianBlur stdDeviation="2" in="shadowOffsetOuter1" result="shadowBlurOuter1"></feGaussianBlur>
            <feColorMatrix values="0 0 0 0 0.364705882   0 0 0 0 0.31372549   0 0 0 0 0.776470588  0 0 0 1 0" type="matrix" in="shadowBlurOuter1"></feColorMatrix>
        </filter>
        <text id="text-3" font-family="HelveticaNeue-Bold, Helvetica Neue" font-size="97" font-weight="bold" line-spacing="24" letter-spacing="1.27631584" fill="#FFFFFF">
            <tspan x="3.97903932e-13" y="95">1</tspan>
            <tspan x="153.954316" y="181.677628" font-size="20" letter-spacing="0.263157904"></tspan>
        </text>
        <filter x="-5.8%" y="-114.1%" width="113.4%" height="247.5%" filterUnits="objectBoundingBox" id="filter-4">
            <feOffset dx="2" dy="2" in="SourceAlpha" result="shadowOffsetOuter1"></feOffset>
            <feGaussianBlur stdDeviation="4.5" in="shadowOffsetOuter1" result="shadowBlurOuter1"></feGaussianBlur>
            <feColorMatrix values="0 0 0 0 0.364705882   0 0 0 0 0.31372549   0 0 0 0 0.776470588  0 0 0 1 0" type="matrix" in="shadowBlurOuter1"></feColorMatrix>
        </filter>
        <text id="text-5" font-family="HelveticaNeue-Bold, Helvetica Neue" font-size="20" font-weight="bold" line-spacing="16" letter-spacing="0.263157904" fill="#FFFFFF">
            <tspan x="29.5102869" y="77.3971083">Realization</tspan>
        </text>
        <filter x="-4.5%" y="-31.2%" width="112.5%" height="193.8%" filterUnits="objectBoundingBox" id="filter-6">
            <feOffset dx="2" dy="2" in="SourceAlpha" result="shadowOffsetOuter1"></feOffset>
            <feGaussianBlur stdDeviation="2" in="shadowOffsetOuter1" result="shadowBlurOuter1"></feGaussianBlur>
            <feColorMatrix values="0 0 0 0 0.364705882   0 0 0 0 0.31372549   0 0 0 0 0.776470588  0 0 0 1 0" type="matrix" in="shadowBlurOuter1"></feColorMatrix>
        </filter>
        <text id="text-7" font-family="HelveticaNeue-Bold, Helvetica Neue" font-size="97" font-weight="bold" line-spacing="24" letter-spacing="1.27631584" fill="#FFFFFF">
            <tspan x="3.97903932e-13" y="95">2</tspan>
            <tspan x="153.954316" y="181.677628" font-size="20" letter-spacing="0.263157904"></tspan>
        </text>
        <filter x="-5.8%" y="-121.9%" width="113.4%" height="256.2%" filterUnits="objectBoundingBox" id="filter-8">
            <feOffset dx="2" dy="2" in="SourceAlpha" result="shadowOffsetOuter1"></feOffset>
            <feGaussianBlur stdDeviation="4.5" in="shadowOffsetOuter1" result="shadowBlurOuter1"></feGaussianBlur>
            <feColorMatrix values="0 0 0 0 0.364705882   0 0 0 0 0.31372549   0 0 0 0 0.776470588  0 0 0 1 0" type="matrix" in="shadowBlurOuter1"></feColorMatrix>
        </filter>
    </defs>
    <g id="Page-1" stroke="none" stroke-width="1" fill="none" fill-rule="evenodd">
        <g id="Herrd-Case-Study-Copy" transform="translate(-465.000000, -11917.000000)">
            <g id="Group-8" transform="translate(472.000000, 11917.330911)">
                <g id="Group-93">
                    <g id="Group-10" transform="translate(17.742474, -0.000000)">
                        <path d="M181.102292,61.3726489 C181.102292,51.7234644 175.561717,42.7744927 166.479765,37.50209 C161.658746,19.1608594 143.05922,6.0866035 121.276148,6.0866035 C116.035064,6.0866035 110.918444,6.8429056 106.017691,8.34103512 C99.9403673,3.00168704 91.7588315,-6.91752515e-13 83.0249885,-6.91752515e-13 C72.9356594,-6.91752515e-13 63.3655767,4.18861091 57.2435242,11.1183646 C55.8860933,10.9681898 54.5208834,10.8921977 53.1595629,10.8921977 C38.3717335,10.8921977 25.7211772,19.4575904 21.8083533,31.6742214 C8.80968795,35.6330468 1.16630962e-13,46.344311 1.16630962e-13,58.6785488 C1.16630962e-13,62.3352152 0.809013286,65.9828349 2.35897384,69.3662916 C0.81095803,72.7515577 1.16630962e-13,76.3991774 1.16630962e-13,80.0522251 C1.16630962e-13,90.6603572 6.5440618,100.240787 17.140969,105.249027 C23.2241266,110.577519 31.5612419,113.617202 40.1686765,113.617202 C45.6664663,113.617202 50.9386659,112.442943 55.668282,110.183084 C61.8058924,116.436146 70.868397,120.172423 80.3976401,120.172423 C86.3388314,120.172423 92.0038691,118.802756 97.0096389,116.182839 C102.552158,119.960731 109.17012,122.394287 116.145915,123.190394 C127.905778,134.16944 136.931333,148.352818 137.020791,148.501184 L139.986525,153.200027 L154.87937,143.266777 L146.588929,121.158511 C151.258258,119.14653 155.122463,115.855349 157.568951,111.730065 C167.741904,106.707351 174.219844,97.0925438 174.219844,86.7702866 C174.219844,84.4561469 173.906741,82.172766 173.288312,79.9509024 C178.290192,74.8015345 181.102292,68.1902238 181.102292,61.3726489 Z M151.365219,103.484925 L149.509934,104.273795 L148.689252,106.012566 C146.968154,109.654758 143.242026,112.31629 138.728276,113.137728 L132.668455,114.235994 L140.571893,135.31294 C136.252617,129.506783 129.784401,121.576467 122.262133,114.829456 L120.869697,113.582824 L118.944401,113.450743 C114.345082,113.134109 109.934404,111.847672 106.060475,109.781411 L121.458954,98.4585918 C125.469015,95.5075661 130.873457,94.2229382 132.693737,94.6770813 L139.751211,96.4230897 L142.401896,87.1303443 L135.342478,85.3861452 C129.138746,83.8482103 120.255158,87.0923483 115.051024,90.9172828 L97.7583651,103.627862 L97.7175255,103.591676 L94.1742029,106.043325 C90.2341526,108.775421 85.7106793,110.22108 80.6348988,110.22108 C73.3868398,110.22108 66.6871986,107.081883 62.7977116,101.986795 L62.7977116,96.6962994 L62.7977116,94.4834824 L62.7977116,87.5736314 C62.7977116,83.7161289 64.7268971,80.0323225 65.8645721,79.3936271 L71.6385155,76.0753065 L66.0376542,67.5623845 L60.1159104,70.8770865 C57.3446509,72.4349241 55.2015436,75.1923509 53.7721571,78.2826954 C52.5703057,77.2513743 51.2731618,76.332232 49.9176756,75.5668833 L32.5958454,65.7982827 L27.0474923,74.307586 L44.12234,84.0761866 C48.2704778,86.4156569 51.1292507,91.5016981 51.1292507,94.4834824 L51.1292507,96.6962994 L51.1292507,100.88672 C47.2397638,102.699673 44.0348265,103.664049 39.9236388,103.664049 C33.8132548,103.664049 28.0529247,101.453042 23.9145105,97.6045856 L23.3213638,96.996649 L22.51624,96.629354 C15.2040045,93.4015 10.6766417,87.0471149 10.6766417,80.0486065 C10.6766417,77.1373862 11.4564838,74.3437727 12.979218,71.7419487 L14.3755438,69.3608636 L12.9831075,66.9815879 C11.4623181,64.3851919 10.6902549,61.5915784 10.6902549,58.6767395 C10.6902549,50.026308 17.5746468,42.5700378 27.428662,40.5453918 L30.9292003,39.8252764 L31.5437392,36.5395237 C33.2453897,27.4421865 42.333176,20.8399225 53.1556735,20.8399225 C54.9195558,20.8399225 56.6931618,21.0244746 58.4259283,21.3899603 L62.0917697,22.1607371 L64.1143029,19.2133301 C68.032961,13.4994497 75.2790752,9.94953409 83.0230438,9.94953409 C88.0404819,9.94953409 92.7584296,11.3915742 96.5779058,13.9807328 L92.6009054,17.4329443 L92.5328394,17.3641896 L89.746022,19.7814614 C85.9946118,22.4520401 81.399183,23.8542748 79.6469691,23.6082053 L72.0644143,22.5461255 L70.4755589,32.3870995 L78.0522794,33.4473699 C78.3050961,33.4835566 78.5754154,33.4799379 78.8340663,33.4998406 C77.6108227,37.0551842 77.1713106,40.8457414 77.7897391,44.1984395 L79.534174,53.6540251 L90.0766284,51.9677247 L88.3321935,42.5139484 C87.6748702,38.9513675 89.6098899,33.507078 92.3986521,31.0916155 L96.7821039,27.2847743 C97.3849743,26.8414872 97.9567289,26.3927721 98.4798649,25.9404383 L106.873378,18.6542456 C111.433801,16.9245212 116.274268,16.0361376 121.268369,16.0361376 C138.788563,16.0361376 153.59584,26.7872072 156.479894,41.6002342 L156.946633,44.0030313 L159.272546,45.1284377 C166.131656,48.4467584 170.396479,54.6708714 170.396479,61.3726489 C170.396479,64.8827591 169.247135,68.2227918 167.135144,71.1285841 L165.474333,69.5834119 L165.476278,69.5834119 L158.547157,63.1367507 C155.534749,60.3358998 152.454275,54.1371175 151.948642,49.8743239 L150.805133,40.1889527 L140.538832,41.2383671 L141.682341,50.9237383 C142.009058,53.7010678 143.020325,56.8456923 144.403037,59.8745194 C143.716543,59.7967179 143.031993,59.7116792 142.372725,59.6827298 L119.142764,58.6568368 L118.650744,68.2571692 L141.896263,69.2812529 C146.653106,69.4911358 153.615287,72.1291465 156.507121,74.8160092 L162.018524,79.9454744 L162.218832,80.4068548 C163.086188,82.4423569 163.527645,84.5864191 163.527645,86.7702866 C163.523755,93.8972579 158.86415,100.302304 151.365219,103.484925 Z" id="Shape" fill="#5D50C6" fill-rule="nonzero"></path>
                        <polygon id="Rectangle" fill="#FFFFFF" transform="translate(125.120814, 65.101406) rotate(-9.000000) translate(-125.120814, -65.101406) " points="109.113808 53.4332216 140.862419 53.7753591 141.12782 76.7695913 109.379209 76.4274538"></polygon>
                        <polygon id="Rectangle-Copy-10" fill="#FFFFFF" transform="translate(48.693149, 71.553637) rotate(-9.000000) translate(-48.693149, -71.553637) " points="23.7312576 53.3578564 73.2411648 53.8913978 73.6550408 89.7494168 24.1451336 89.2158754"></polygon>
                        <g id="Discovery" fill-rule="nonzero" fill="#FFFFFF" fill-opacity="1">
                            <use filter="url(#filter-2)" xlink:href="#text-1"></use>
                            <use xlink:href="#text-1"></use>
                        </g>
                    </g>
                    <g id="Group-94" transform="translate(0.000000, 196.305145)">
                        <g id="1-copy" fill-rule="nonzero" fill="#FFFFFF" fill-opacity="1">
                            <use filter="url(#filter-4)" xlink:href="#text-3"></use>
                            <use xlink:href="#text-3"></use>
                        </g>
                        <text id="The-10-Signs-of-Bull-Copy" font-family="HelveticaNeue-Bold, Helvetica Neue" font-size="20" font-weight="bold" line-spacing="24" letter-spacing="0.263157904" fill="#5D50C6">
                            <tspan x="33.1565462" y="59.1907501">The 10 Signs of </tspan>
                            <tspan x="37.7781251" y="83.1907501">Bullying Guide</tspan>
                        </text>
                    </g>
                </g>
                <g id="Group-95" transform="translate(209.000000, 94.000000)">
                    <g id="Group-12" transform="translate(17.742474, -0.000000)">
                        <path d="M181.102292,61.3726489 C181.102292,51.7234644 175.561717,42.7744927 166.479765,37.50209 C161.658746,19.1608594 143.05922,6.0866035 121.276148,6.0866035 C116.035064,6.0866035 110.918444,6.8429056 106.017691,8.34103512 C99.9403673,3.00168704 91.7588315,0 83.0249885,0 C72.9356594,0 63.3655767,4.18861091 57.2435242,11.1183646 C55.8860933,10.9681898 54.5208834,10.8921977 53.1595629,10.8921977 C38.3717335,10.8921977 25.7211772,19.4575904 21.8083533,31.6742214 C8.80968795,35.6330468 0,46.344311 0,58.6785488 C0,62.3352152 0.809013286,65.9828349 2.35897384,69.3662916 C0.81095803,72.7515577 0,76.3991774 0,80.0522251 C0,90.6603572 6.5440618,100.240787 17.140969,105.249027 C23.2241266,110.577519 31.5612419,113.617202 40.1686765,113.617202 C45.6664663,113.617202 50.9386659,112.442943 55.668282,110.183084 C61.8058924,116.436146 70.868397,120.172423 80.3976401,120.172423 C86.3388314,120.172423 92.0038691,118.802756 97.0096389,116.182839 C102.552158,119.960731 109.17012,122.394287 116.145915,123.190394 C127.905778,134.16944 136.931333,148.352818 137.020791,148.501184 L139.986525,153.200027 L154.87937,143.266777 L146.588929,121.158511 C151.258258,119.14653 155.122463,115.855349 157.568951,111.730065 C167.741904,106.707351 174.219844,97.0925438 174.219844,86.7702866 C174.219844,84.4561469 173.906741,82.172766 173.288312,79.9509024 C178.290192,74.8015345 181.102292,68.1902238 181.102292,61.3726489 Z M151.365219,103.484925 L149.509934,104.273795 L148.689252,106.012566 C146.968154,109.654758 143.242026,112.31629 138.728276,113.137728 L132.668455,114.235994 L140.571893,135.31294 C136.252617,129.506783 129.784401,121.576467 122.262133,114.829456 L120.869697,113.582824 L118.944401,113.450743 C114.345082,113.134109 109.934404,111.847672 106.060475,109.781411 L121.458954,98.4585918 C125.469015,95.5075661 130.873457,94.2229382 132.693737,94.6770813 L139.751211,96.4230897 L142.401896,87.1303443 L135.342478,85.3861452 C129.138746,83.8482103 120.255158,87.0923483 115.051024,90.9172828 L97.7583651,103.627862 L97.7175255,103.591676 L94.1742029,106.043325 C90.2341526,108.775421 85.7106793,110.22108 80.6348988,110.22108 C73.3868398,110.22108 66.6871986,107.081883 62.7977116,101.986795 L62.7977116,96.6962994 L62.7977116,94.4834824 L62.7977116,87.5736314 C62.7977116,83.7161289 64.7268971,80.0323225 65.8645721,79.3936271 L71.6385155,76.0753065 L66.0376542,67.5623845 L60.1159104,70.8770865 C57.3446509,72.4349241 55.2015436,75.1923509 53.7721571,78.2826954 C52.5703057,77.2513743 51.2731618,76.332232 49.9176756,75.5668833 L32.5958454,65.7982827 L27.0474923,74.307586 L44.12234,84.0761866 C48.2704778,86.4156569 51.1292507,91.5016981 51.1292507,94.4834824 L51.1292507,96.6962994 L51.1292507,100.88672 C47.2397638,102.699673 44.0348265,103.664049 39.9236388,103.664049 C33.8132548,103.664049 28.0529247,101.453042 23.9145105,97.6045856 L23.3213638,96.996649 L22.51624,96.629354 C15.2040045,93.4015 10.6766417,87.0471149 10.6766417,80.0486065 C10.6766417,77.1373862 11.4564838,74.3437727 12.979218,71.7419487 L14.3755438,69.3608636 L12.9831075,66.9815879 C11.4623181,64.3851919 10.6902549,61.5915784 10.6902549,58.6767395 C10.6902549,50.026308 17.5746468,42.5700378 27.428662,40.5453918 L30.9292003,39.8252764 L31.5437392,36.5395237 C33.2453897,27.4421865 42.333176,20.8399225 53.1556735,20.8399225 C54.9195558,20.8399225 56.6931618,21.0244746 58.4259283,21.3899603 L62.0917697,22.1607371 L64.1143029,19.2133301 C68.032961,13.4994497 75.2790752,9.94953409 83.0230438,9.94953409 C88.0404819,9.94953409 92.7584296,11.3915742 96.5779058,13.9807328 L92.6009054,17.4329443 L92.5328394,17.3641896 L89.746022,19.7814614 C85.9946118,22.4520401 81.399183,23.8542748 79.6469691,23.6082053 L72.0644143,22.5461255 L70.4755589,32.3870995 L78.0522794,33.4473699 C78.3050961,33.4835566 78.5754154,33.4799379 78.8340663,33.4998406 C77.6108227,37.0551842 77.1713106,40.8457414 77.7897391,44.1984395 L79.534174,53.6540251 L90.0766284,51.9677247 L88.3321935,42.5139484 C87.6748702,38.9513675 89.6098899,33.507078 92.3986521,31.0916155 L96.7821039,27.2847743 C97.3849743,26.8414872 97.9567289,26.3927721 98.4798649,25.9404383 L106.873378,18.6542456 C111.433801,16.9245212 116.274268,16.0361376 121.268369,16.0361376 C138.788563,16.0361376 153.59584,26.7872072 156.479894,41.6002342 L156.946633,44.0030313 L159.272546,45.1284377 C166.131656,48.4467584 170.396479,54.6708714 170.396479,61.3726489 C170.396479,64.8827591 169.247135,68.2227918 167.135144,71.1285841 L165.474333,69.5834119 L165.476278,69.5834119 L158.547157,63.1367507 C155.534749,60.3358998 152.454275,54.1371175 151.948642,49.8743239 L150.805133,40.1889527 L140.538832,41.2383671 L141.682341,50.9237383 C142.009058,53.7010678 143.020325,56.8456923 144.403037,59.8745194 C143.716543,59.7967179 143.031993,59.7116792 142.372725,59.6827298 L119.142764,58.6568368 L118.650744,68.2571692 L141.896263,69.2812529 C146.653106,69.4911358 153.615287,72.1291465 156.507121,74.8160092 L162.018524,79.9454744 L162.218832,80.4068548 C163.086188,82.4423569 163.527645,84.5864191 163.527645,86.7702866 C163.523755,93.8972579 158.86415,100.302304 151.365219,103.484925 Z" id="Shape-Copy" fill="#5D50C6" fill-rule="nonzero"></path>
                        <ellipse id="Oval" fill="#FFFFFF" transform="translate(130.030563, 55.465355) rotate(-31.000000) translate(-130.030563, -55.465355) " cx="130.030563" cy="55.4653555" rx="27.9785253" ry="27.7563851"></ellipse>
                        <polygon id="Rectangle-Copy-12" fill="#FFFFFF" transform="translate(48.693149, 71.553637) rotate(-9.000000) translate(-48.693149, -71.553637) " points="23.7312576 53.3578564 73.2411648 53.8913978 73.6550408 89.7494168 24.1451336 89.2158754"></polygon>
                        <g id="Realization" fill-rule="nonzero" fill="#FFFFFF" fill-opacity="1">
                            <use filter="url(#filter-6)" xlink:href="#text-5"></use>
                            <use xlink:href="#text-5"></use>
                        </g>
                    </g>
                    <g id="Group-51" transform="translate(0.000000, 196.305145)">
                        <g id="2" fill-rule="nonzero" fill="#FFFFFF" fill-opacity="1">
                            <use filter="url(#filter-8)" xlink:href="#text-7"></use>
                            <use xlink:href="#text-7"></use>
                        </g>
                        <text id="Generate-Action-Plan" font-family="HelveticaNeue-Bold, Helvetica Neue" font-size="20" font-weight="bold" line-spacing="24" letter-spacing="0.263157904" fill="#5D50C6">
                            <tspan x="63.3475988" y="58.4386974">Generate </tspan>
                            <tspan x="52.412862" y="82.4386974">Action Plan</tspan>
                        </text>
                    </g>
                </g>
            </g>
        </g>
    </g>
</svg>