<?xml version="1.0" encoding="UTF-8"?>
<svg width="549px" height="208px" viewBox="0 0 549 208" version="1.1" xmlns="http://www.w3.org/2000/svg" xmlns:xlink="http://www.w3.org/1999/xlink">
    <title>Group 70</title>
    <defs>
        <polygon id="path-1" points="0 0.535655505 81.3725982 0.535655505 81.3725982 66.4769489 0 66.4769489"></polygon>
    </defs>
    <g id="Page-1" stroke="none" stroke-width="1" fill="none" fill-rule="evenodd">
        <g id="Herrd-Case-Study-Copy" transform="translate(-525.000000, -16707.000000)">
            <g id="Group-70" transform="translate(525.000000, 16707.944441)">
                <g id="Group-73" transform="translate(408.488249, 0.000000)">
                    <path d="M53.8300798,2.03955462 C53.8300798,2.03955462 45.2541877,-5.65457711 33.719547,8.84549645 C22.1849063,23.3429344 4.1399647,30.444061 0,36.0648711 C0,36.0648711 17.1561753,28.9646231 23.0701597,26.0057471 C28.9859005,23.0477497 28.690816,23.6389977 28.690816,23.6389977 C28.690816,23.6389977 20.7042146,29.2598078 19.2261577,34.882375 C17.7463442,40.5031851 18.930195,45.2384408 16.267409,50.8601295 C13.6055013,56.4809396 67.1422531,54.7054383 67.1422531,54.7054383 C67.1422531,54.7054383 72.4660686,45.5336256 70.9862551,36.0648711 C69.5090764,26.5978737 70.395208,3.2229293 53.8300798,2.03955462" id="Fill-1" fill="#3C434D"></path>
                    <path d="M36.9730288,24.822021 C36.9730288,24.822021 39.0430112,39.3203375 30.1693999,42.5743982 C21.2940323,45.8293375 24.5505,50.2667729 24.5505,50.2667729 L37.8582822,56.77753 L52.0565871,52.3383375 L56.7893554,45.2380894 C56.7893554,45.2380894 49.0995949,43.4634667 51.1704555,38.1360843 C53.2386814,32.810459 53.8306068,31.0358362 53.8306068,31.0358362 L36.9730288,24.822021 Z" id="Fill-3" fill="#ECBDB7"></path>
                    <path d="M36.9730288,24.822021 C36.9730288,24.822021 39.0430112,39.3203375 30.1693999,42.5743982 C21.2940323,45.8293375 24.5505,50.2667729 24.5505,50.2667729 L37.8582822,56.77753 L52.0565871,52.3383375 L56.7893554,45.2380894 C56.7893554,45.2380894 49.0995949,43.4634667 51.1704555,38.1360843 C53.2386814,32.810459 53.8306068,31.0358362 53.8306068,31.0358362 L36.9730288,24.822021 Z" id="Fill-5" fill="#ECBDB7"></path>
                    <path d="M63.787336,53.5868988 C63.787336,53.5868988 62.4761423,70.8121604 62.8502672,71.5606647 C63.2243922,72.3100474 62.8502672,98.3355051 62.8502672,98.3355051 C62.8502672,98.3355051 65.4708983,112.377867 62.1020174,113.125492 C58.7331365,113.875754 59.4822646,97.3989963 59.4822646,97.3989963 L56.1125054,75.6800736 L56.4866304,54.148277 L63.787336,53.5868988 Z" id="Fill-7" fill="#ECBDB7"></path>
                    <path d="M63.787336,53.5868988 C63.787336,53.5868988 62.4761423,70.8121604 62.8502672,71.5606647 C63.2243922,72.3100474 62.8502672,98.3355051 62.8502672,98.3355051 C62.8502672,98.3355051 65.4708983,112.377867 62.1020174,113.125492 C58.7331365,113.875754 59.4822646,97.3989963 59.4822646,97.3989963 L56.1125054,75.6800736 L56.4866304,54.148277 L63.787336,53.5868988 Z" id="Fill-9" fill="#ECBDB7"></path>
                    <path d="M32.7303115,91.9091744 C32.7303115,91.9091744 27.9755875,109.930381 28.1196168,118.725306 C28.2627679,127.519352 30.1369055,139.773913 30.1369055,139.773913 C30.1369055,139.773913 30.4258424,145.109202 29.9937544,145.686394 C29.5607883,146.262707 32.1550725,148.713795 32.1550725,148.713795 L34.893386,147.128055 L35.9015912,145.97455 L35.9015912,144.965124 C35.9015912,144.965124 34.3163905,140.063826 35.6135326,136.170199 C36.9115529,132.277449 37.6308213,122.473977 36.3345574,119.446576 L45.2705228,92.9177224 L32.7303115,91.9091744 Z" id="Fill-11" fill="#ECBDB7"></path>
                    <path d="M32.4429554,146.4074 C32.4429554,146.4074 30.7137254,144.24359 29.5606126,144.96486 C28.4066216,145.68613 26.5333622,150.587427 26.5333622,150.587427 C26.5333622,150.587427 20.0485299,156.786308 24.6601028,157.076221 C29.2734322,157.364378 31.2898427,155.778638 31.8659599,154.625133 C32.4429554,153.471629 37.7755532,150.443349 37.7755532,150.443349 C37.7755532,150.443349 37.1994359,144.96486 36.33526,144.820782 C35.4693276,144.676704 34.1713073,146.982835 34.1713073,146.982835 L32.4429554,146.4074 Z" id="Fill-13" fill="#3C434D"></path>
                    <path d="M48.4414512,93.0631185 L48.4414512,110.940246 C48.4590157,113.109327 48.6021668,115.275773 48.8726609,117.427283 C49.3056271,120.60052 46.422406,144.243414 46.422406,144.243414 L46.7104647,148.425199 L50.3147106,148.136164 L50.7467985,144.531571 L55.9353669,128.673296 C55.9353669,128.673296 57.6654752,119.013901 56.8004211,115.409309 C55.9353669,111.804716 61.2670864,88.7372559 61.2670864,88.7372559 L48.4414512,93.0631185 Z" id="Fill-15" fill="#ECBDB7"></path>
                    <path d="M45.5580545,147.415421 L46.6259792,147.18349 C46.6259792,147.18349 47.4321921,145.397446 48.4412755,145.829681 C49.1500052,146.157371 49.8244839,146.559736 50.4462691,147.031505 L50.889774,147.848534 C50.889774,147.848534 51.8997357,150.011466 53.1959995,151.453127 C54.4940199,152.894788 55.9351913,156.066268 53.772995,156.354424 C51.611677,156.642581 48.7293342,156.786659 47.8651583,156.066268 C46.9992259,155.344998 47.5762214,154.192371 46.710289,153.904215 C45.8461131,153.616058 45.1259665,152.75071 45.2708741,152.461675 C45.4149034,152.173518 45.5580545,147.415421 45.5580545,147.415421" id="Fill-17" fill="#3C434D"></path>
                    <path d="M48.8033688,7.66159465 C56.6433062,7.66159465 63.0007954,14.0203667 63.0007954,21.8629693 C63.0007954,29.707329 56.6433062,36.0652225 48.8033688,36.0652225 C40.9625531,36.0652225 34.6068203,29.707329 34.6068203,21.8629693 C34.6068203,14.0203667 40.9625531,7.66159465 48.8033688,7.66159465" id="Fill-19" fill="#ECBDB7"></path>
                    <path d="M31.9687126,40.1066184 L34.4409231,39.2430272 C34.4409231,39.2430272 33.4660905,40.8551226 38.7064744,41.7916315 C43.9477364,42.7281403 49.3751827,43.0593447 51.8078731,39.9915315 C51.8078731,39.9915315 52.7440636,39.5443617 54.0543792,40.8551226 C55.3638164,42.1667621 56.1120663,41.7916315 56.1120663,41.7916315 L55.1776322,46.6595447 L53.3061293,55.6459883 L50.8708043,62.3869192 L43.9477364,60.8890322 L36.4608465,55.4597408 L33.653153,48.1574317 L33.653153,41.4173793 L31.9687126,40.1066184 Z" id="Fill-21" fill="#6D71A6"></path>
                    <path d="M54.8035073,42.7279646 L56.6750102,41.4172036 C56.6750102,41.4172036 63.0395253,42.53996 63.4136502,45.5357341 L58.5465131,54.8981869 C59.5389102,57.5021383 59.4712867,60.3924892 58.3594506,62.9490002 C56.4870695,67.2546567 56.6750102,68.1911656 56.6750102,68.1911656 L55.3638164,73.807583 L31.5937094,75.6806007 C31.5937094,75.6806007 30.6601535,73.4333309 30.2842721,73.0582003 C29.9101472,72.6848267 29.9101472,71.3740657 30.2842721,71.3740657 C30.6601535,71.3740657 30.2842721,70.811809 29.9101472,70.2513093 C29.5360222,69.6881741 29.3489598,69.5019265 29.9101472,68.7534223 C30.4704564,68.0040395 28.9748348,61.2639871 28.9748348,61.2639871 L28.9748348,53.9616781 L22.6103197,45.5357341 C22.6103197,45.5357341 24.8568258,42.1665864 25.9792006,41.7923343 C27.1024537,41.4172036 32.4455901,39.9404012 32.4455901,39.9404012 L33.653153,41.7202952 L35.3384717,55.272439 L37.7702838,63.5094999 L48.0156865,61.7691397 L51.9958138,55.0844344 L54.6164448,47.2216257 L54.8035073,42.7279646 Z" id="Fill-23" fill="#6D71A6"></path>
                    <path d="M61.9150427,44.4129777 L63.4132989,45.5357341 C63.4132989,45.5357341 64.7227362,56.0209433 64.347733,56.7694475 C63.9744863,57.5188303 57.4246652,58.2682131 57.2367245,57.8930824 C57.0487838,57.5188303 61.9150427,44.4129777 61.9150427,44.4129777" id="Fill-25" fill="#6D71A6"></path>
                    <path d="M21.3004433,55.833378 C21.3004433,55.833378 22.6098806,73.0586395 22.2348774,73.8071438 C21.8633872,74.5565266 22.2348774,100.581106 22.2348774,100.581106 C22.2348774,100.581106 19.6151246,114.623467 22.985762,115.37285 C26.3546429,116.122233 25.6055148,99.6454754 25.6055148,99.6454754 L28.9743957,77.9274313 L28.6002708,56.3956347 L21.3004433,55.833378 Z" id="Fill-27" fill="#ECBDB7"></path>
                    <path d="M31.0321707,39.1709881 L32.9054301,51.5265794 C32.9054301,51.5265794 31.2201114,69.8763544 31.5942363,73.6206327 L31.9683613,74.7433891 C31.9683613,74.7433891 31.2201114,74.3691369 31.0321707,75.1185197 C30.8459865,75.867024 31.0321707,78.3014198 31.0321707,78.3014198 C31.0321707,78.3014198 29.9106741,79.4241762 29.5356709,85.6037289 C29.1597896,91.7824031 24.6694121,106.573269 26.3547307,107.134647 C28.0374147,107.696904 38.1449357,110.504673 43.572382,109.943295 C49.0007065,109.381917 68.4648638,102.82899 68.2795578,101.143977 C68.0916171,99.4580858 58.7332243,75.6807764 58.7332243,75.6807764 C58.7332243,75.6807764 57.0487838,72.8721284 57.0487838,72.4978763 C57.0487838,72.1236242 59.2952899,70.6257372 58.7332243,69.1269716 C58.1720369,67.6290846 55.1772809,51.9025886 55.1772809,51.9025886 L57.2340898,40.6688751 L54.4299093,39.9186138 L52.3687092,50.7780751 C52.3687092,50.7780751 44.3215101,54.7094795 35.900186,51.1532058 L34.0269267,38.4207268 L31.0321707,39.1709881 Z" id="Fill-29" fill="#3C434D"></path>
                    <path d="M24.1084003,44.9740923 L22.6101441,45.536349 C22.6101441,45.536349 19.8033288,57.3314407 20.5524569,57.3314407 C21.3007068,57.3314407 30.2840965,58.4550756 30.2840965,58.0808235 C30.2840965,57.7056928 28.599656,48.5312446 28.599656,48.5312446 L24.1084003,44.9740923 Z" id="Fill-31" fill="#6D71A6"></path>
                    <path d="M37.5648664,9.43709594 C37.5648664,9.43709594 59.45381,24.5266605 65.3651597,17.7215972 C71.2835352,10.9165339 55.0134915,4.99878199 55.0134915,4.99878199 L41.4097466,3.51934401 L37.5648664,9.43709594 Z" id="Fill-33" fill="#3C434D"></path>
                    <polygon id="Fill-38" fill="#E4E4E3" points="92.6710109 65.9231626 94.1262339 76.9372445 105.404432 89.1751133 119.593077 70.8183101 119.593077 60.6195004"></polygon>
                    <path d="M85.5328651,166.123195 C84.7240175,168.268556 84.9049324,169.447538 85.2175814,172.517108 C85.5328651,175.586679 86.3171223,178.401476 89.9222464,179.169308 C93.5273705,179.935383 91.3326799,170.728429 91.3326799,170.728429 L94.9386822,154.612746 L86.1599196,152.310129 C86.1599196,152.310129 86.7878523,162.797974 85.5328651,166.123195" id="Fill-40" fill="#7C7D7B"></path>
                    <path d="M85.5311965,155.403244 C85.2879274,152.110528 89.6290062,153.007503 90.1831678,153.007503 C90.7329383,153.007503 97.8887364,171.87473 97.8887364,171.87473 L88.346794,173.072161 L85.3476469,155.902247 L85.5311965,155.403244 Z" id="Fill-42" fill="#5E5F5E"></path>
                    <path d="M87.7953549,163.190324 L87.9780263,168.879659 C87.9780263,168.879659 88.1615758,167.682228 88.1615758,171.874554 C88.1615758,176.066881 96.236,174.569872 96.236,174.569872 C96.236,174.569872 98.9901216,172.473709 100.091419,168.879659 C101.143536,165.449893 105.780577,144.322218 105.780577,144.322218 L88.713981,138.334184 L88.1282032,154.166103 L87.7953549,163.190324 Z" id="Fill-44" fill="#666766"></path>
                    <polygon id="Fill-46" fill="#666766" points="102.61202 146.445177 103.805531 164.925852 102.756049 184.242884 103.878424 189.524583 116.096326 187.627845 118.91368 189.726644 119.03224 192.717147 119.749752 165.030397 119.964918 136.198048 101.920855 140.517761"></polygon>
                    <polygon id="Fill-48" fill="#D5D6D5" points="94.17278 70.0382667 105.893605 85.8420731 121.594557 62.1499807 126.250041 110.156162 123.783978 124.137905 86.1519277 122.313206 86.1519277 76.1167889 90.4877371 61.2319209"></polygon>
                    <polygon id="Fill-50" fill="#CFD0CF" points="85.706315 146.084454 122.560256 146.084454 122.560256 116.91563 85.706315 116.91563"></polygon>
                    <polygon id="Fill-52" fill="#E9E9E8" points="86.3500558 146.446407 123.205753 146.446407 123.205753 117.276704 86.3500558 117.276704"></polygon>
                    <polygon id="Fill-53" fill="#1A1919" points="87.4625945 119.01478 85.7061394 116.915981 121.327049 116.4038 124.318292 119.01478"></polygon>
                    <polygon id="Fill-54" fill="#DBDCDB" points="87.4627702 148.185888 124.318468 148.185888 124.318468 119.015307 87.4627702 119.015307"></polygon>
                    <path d="M122.638858,78.8440854 C123.399403,81.8723649 124.12921,84.9111868 124.881851,87.9421019 C125.493975,90.4133959 127.257456,94.371156 126.929877,96.8134586 C126.568926,99.5087767 125.428108,102.615245 124.050169,104.677146 C122.372755,107.185338 121.483988,109.071534 119.471969,111.169454 C118.498893,112.18503 118.566516,112.256191 117.241271,112.937927 C116.128557,113.510726 115.122108,113.516876 114.152545,114.391009 C112.176533,116.173539 109.062338,123.553158 110.530734,126.28801 C112.386429,129.741496 123.484591,122.827495 123.484591,122.827495 L125.95241,115.909981 C125.95241,115.909981 129.496937,110.582598 131.963,107.123841 C134.432575,103.665084 138.951934,95.8971559 138.951934,95.8971559 L132.509257,74.693928 L122.638858,78.8440854 Z" id="Fill-55" fill="#C4C5C4"></path>
                    <path d="M121.594206,62.1495415 C121.594206,62.1495415 134.490978,71.3020266 133.872705,76.834984 L123.783627,82.635892 L119.464504,66.7266625 L121.594206,62.1495415 Z" id="Fill-56" fill="#D5D6D5"></path>
                    <path d="M115.660198,68.3897125 C115.660198,68.3897125 114.291041,80.1681121 115.204398,85.7994645 C116.117755,91.4334525 117.031989,98.6031042 117.031989,98.6031042 L117.031989,106.797117 C117.031989,106.797117 119.312746,102.187491 121.598773,100.139646 C123.881286,98.0909234 123.425486,92.9699947 123.425486,89.3856082 C123.425486,85.7994645 121.140338,75.0463049 121.140338,75.0463049 L117.945346,65.8288089 L115.660198,68.3897125 Z" id="Fill-57" fill="#1A1919"></path>
                    <path d="M126.341289,46.1460462 C126.341289,60.3553276 117.279737,71.8736835 106.102535,71.8736835 C94.9262114,71.8736835 85.8646595,60.3553276 85.8646595,46.1460462 C85.8646595,31.9367648 94.9262114,20.4175303 106.102535,20.4175303 C117.279737,20.4175303 126.341289,31.9367648 126.341289,46.1460462" id="Fill-58" fill="#C4C5C4"></path>
                    <path d="M89.1538851,62.0044968 C100.836068,73.3102494 112.518251,47.0800951 112.518251,47.0800951 C112.518251,47.0800951 116.255988,54.3165148 124.199556,55.2213967 C127.004615,52.5076295 126.536519,49.7938623 126.536519,49.7938623 C126.536519,49.7938623 132.611219,22.6588261 106.909012,18.1370522 C98.4999828,18.1370522 76.0691728,28.5388014 89.1538851,62.0044968" id="Fill-59" fill="#1A1919"></path>
                    <path d="M106.41738,68.2889455 C106.41738,68.2889455 107.788293,69.8254877 106.41738,71.8733321 C105.048223,73.9229335 107.330737,73.9229335 107.330737,73.9229335 L110.985041,69.313307" id="Fill-60" fill="#C4C5C4"></path>
                    <path d="M89.4429098,80.6796779 L84.4738983,101.496354 L97.4277548,114.639105 C97.4277548,114.639105 104.213819,124.323098 102.363394,127.780099 C100.512968,131.238856 89.4077807,124.321341 89.4077807,124.321341 L86.9399613,117.404705 C86.9399613,117.404705 82.3117021,111.806737 79.8456391,108.347979 C77.3786979,104.889222 72.2797087,99.8385754 72.2797087,99.8385754 L79.5733885,76.5295205 L89.4429098,80.6796779 Z" id="Fill-61" fill="#C4C5C4"></path>
                    <path d="M88.0028801,84.7106193 L76.2978632,79.2830849 C76.2978632,79.2830849 80.9366612,61.843463 88.8503697,63.3738555 C91.8899153,63.9607109 89.8524273,66.7271897 89.8524273,66.7271897 C89.8524273,66.7271897 92.9393972,75.7189045 88.0028801,84.7106193" id="Fill-62" fill="#D5D6D5"></path>
                    <path d="M103.878775,189.524232 C103.878775,189.524232 107.194963,192.774779 105.618544,198.94291 L109.891121,203.291615 L117.327074,201.299996 C117.327074,201.299996 116.587606,199.879419 118.914031,189.726293 C121.647075,177.807329 109.67859,186.507373 109.67859,186.507373 L103.878775,189.524232 Z" id="Fill-63" fill="#666766"></path>
                    <path d="M103.878775,189.524232 C103.878775,189.524232 105.429725,182.758702 108.9602,179.98256 C112.493309,177.206417 115.238649,177.513023 118.197397,183.201479 C121.157024,188.889057 119.749225,187.839219 119.032592,192.717674 C118.315958,197.593494 111.062677,198.365719 111.062677,198.365719 L106.430905,196.456681 L103.878775,189.524232 Z" id="Fill-64" fill="#7C7D7B"></path>
                    <path d="M105.618895,199.412395 C105.618895,199.412395 110.846984,204.270644 117.458281,199.36144 L116.76536,204.246045 L112.327676,206.808706 L107.288406,206.21658 L105.618895,199.412395 Z" id="Fill-65" fill="#7C7D7B"></path>
                </g>
                <g id="Group-72" transform="translate(-0.000000, 2.149458)">
                    <g id="Group-37" transform="translate(0.000000, 116.615597)">
                        <mask id="mask-2" fill="white">
                            <use xlink:href="#path-1"></use>
                        </mask>
                        <g id="Clip-36"></g>
                        <path d="M36.6147918,66.4769489 L39.3857246,62.7814343 L43.9307417,56.7133019 L46.3292886,53.5192464 L51.8807024,46.1129347 L48.1625728,53.74944 L46.7866548,56.5738485 L43.9880318,62.3200919 L42.0506705,66.2954684 L41.9637805,66.4769489 L70.6107562,66.4769489 C72.6932525,61.7154756 75.500469,54.8927667 78.5378009,46.3565005 C84.7862446,28.8121191 79.2730242,13.6642344 75.6694749,10.7806059 C73.6385397,9.15396823 72.9797032,5.93030276 72.7925554,3.42396255 C72.7849168,3.32653622 72.7734587,3.22910988 72.7572265,3.13263871 C72.4679114,1.43436398 70.8571038,0.291037295 69.1594062,0.580450817 L36.4467408,6.76893336 L39.3857246,25.4423141 C39.3857246,25.4423141 22.6016255,39.1202073 10.9707739,51.083588 C10.0780026,52.0024521 9.2119668,52.9117645 8.38889856,53.8019738 C6.91081316,55.3961361 5.52630163,57.0781731 4.24968652,58.8375781 C2.88331687,60.7058713 1.69836597,62.7002457 0.709156352,64.7930015 C0.436073389,65.3823353 0.207867696,65.9382385 -0.000286450661,66.4769489 L36.6147918,66.4769489 Z" id="Fill-35" fill="#3C434D" mask="url(#mask-2)"></path>
                    </g>
                    <path d="M42.8705878,58.8932639 C42.8705878,58.8932639 47.6772299,71.1517891 43.8321072,73.3142717 C39.9860297,75.4786646 38.0658554,75.7184098 38.0658554,75.7184098 L33.9801141,82.6891685 L31.5777479,89.8996723 L50.8014518,90.6208183 L64.2550845,69.2290518 C64.2550845,69.2290518 57.7688867,65.8640226 54.4040462,51.4430148 L42.8705878,58.8932639 Z" id="Fill-66" fill="#9D7376"></path>
                    <path d="M61.3742502,167.535662 C61.3742502,167.535662 49.7252566,183.175454 55.372154,182.864072 C61.0190513,182.550779 66.0729958,167.441101 66.0729958,167.441101 L61.3742502,167.535662 Z" id="Fill-67" fill="#9D7376"></path>
                    <path d="M67.9788476,69.5893382 C61.0983027,65.0666549 52.1715453,74.6077495 45.4361354,75.4053083 C42.7053058,75.7281524 32.4274561,74.198941 32.4179077,79.6844257 C32.4179077,84.7391331 31.1021443,88.2569879 31.6225297,93.4272698 C32.2193019,99.3788726 31.7915356,104.681922 33.5723039,110.241909 C35.0351119,114.806619 35.150647,118.202213 36.6621517,124.464243 L71.8230154,117.420892 L67.9788476,69.5893382 Z" id="Fill-68" fill="#C8CBD4"></path>
                    <polygon id="Fill-69" fill="#1A1919" points="64.5922369 98.9721654 64.0088324 108.747274 63.209635 114.456266 66.6088495 105.512147"></polygon>
                    <path d="M59.9746522,71.1293429 C59.9746522,71.1293429 64.3497087,62.9140105 69.4704916,69.7290781 C74.5922295,76.5431905 79.0236212,108.250687 79.0236212,108.250687 L69.1926345,159.338382 C69.1926345,159.338382 58.6655727,162.744483 58.872772,154.457513 C59.0790165,146.172454 64.7707911,105.827445 65.4420405,104.644957 C66.1123351,103.462469 59.9746522,71.1293429 59.9746522,71.1293429" id="Fill-70" fill="#C8CBD4"></path>
                    <path d="M45.3556428,116.422082 C49.0422628,111.257531 58.9992877,108.216301 64.6146755,111.567958 C67.3502793,113.201282 69.4451885,116.540521 70.6387329,119.425105 C71.0187575,122.458694 69.6924909,125.493237 67.6061753,129.474345 C65.5208144,133.456407 40.4859815,126.349061 40.4859815,126.349061 C41.185876,124.741526 41.8695382,123.123485 42.5942584,121.527412 C43.3438043,119.880716 44.2203433,118.012423 45.3556428,116.422082" id="Fill-71" fill="#C27626"></path>
                    <path d="M60.4035644,112.219472 C59.3599291,112.044678 58.4337387,111.717058 57.3280391,111.723644 C54.3565909,111.743803 51.2820205,113.074341 48.7879901,114.591135 C45.513859,116.582644 44.6229975,119.479645 43.1850152,122.796916 C41.7604005,126.087442 39.9901354,129.20222 38.2255994,132.317952 C35.0030294,138.007841 31.7804595,138.576161 30.6432504,139.713757 C29.5060413,140.851353 24.7681473,145.401736 27.2325779,148.814523 C29.6960535,152.228265 39.7418782,151.090669 43.5325753,153.365861 C47.1351698,156.39945 50.7368094,153.175784 52.2521334,151.468913 C53.7684122,149.762997 67.4168314,135.162419 70.0703193,122.079591 C70.2593768,119.046002 66.08961,113.167946 60.4035644,112.219472" id="Fill-72" fill="#F1A948"></path>
                    <path d="M70.6392103,119.424627 L70.4797528,119.655776 C70.4950302,119.23264 70.4854818,118.817146 70.3775854,118.45323 C70.2152634,117.910699 69.7244779,116.999476 69.5230076,116.652753 C69.3196276,116.300299 69.0293576,116.014706 68.7515005,115.719561 C68.6350105,115.554319 68.5108819,115.405314 68.3800695,115.271591 C68.307502,115.17321 68.23207,115.078649 68.173825,114.969761 L68.2120184,115.101573 C68.1986507,115.090111 68.1881475,115.074828 68.1747798,115.064321 C68.1747798,115.064321 69.502956,119.046384 66.658501,125.113561 C66.6021657,125.232956 66.5334175,125.371454 66.4675339,125.504222 L49.1439528,150.746239 C47.6658674,152.298374 46.5305679,153.124587 45.9968148,152.796012 L46.5658968,154.502884 L49.2193848,165.689719 L50.1675365,165.311476 C51.116643,164.931322 71.3973498,132.697533 71.9664317,129.663944 C72.5345589,126.6294 70.6392103,119.424627 70.6392103,119.424627" id="Fill-73" fill="#EB8B2D"></path>
                    <path d="M26.4733881,146.350592 C26.4733881,146.350592 24.3880273,148.056508 24.5789944,153.365288 C24.767097,158.675023 26.6634004,160.191817 27.420585,160.571016 C28.1787244,160.950214 45.6187954,167.207469 47.8941685,166.25995 L49.2194803,165.689719 L46.4705087,153.081605 C46.4705087,153.081605 41.162578,150.237138 38.6991023,150.427215 C36.233717,150.616337 29.8859703,148.056508 28.7487612,148.056508 C27.6105972,148.056508 26.4733881,146.350592 26.4733881,146.350592" id="Fill-74" fill="#C27626"></path>
                    <path d="M35.5181632,131.997973 C35.5181632,131.997973 29.8693562,136.516836 28.7397858,139.229491 L45.6823875,143.975682 L53.5893806,135.162419 C53.5893806,135.162419 43.1979054,128.157275 40.4861725,129.059901 C37.7763493,129.965393 35.5181632,131.997973 35.5181632,131.997973" id="Fill-75" fill="#F1A948"></path>
                    <path d="M57.2034331,131.545992 C57.2034331,131.545992 54.492655,135.162228 53.5893806,135.162228 C52.6851513,135.162228 41.842039,129.512456 37.5510081,130.867828 L35.5181632,131.997782 C35.5181632,131.997782 38.2279865,127.705293 40.4861725,126.348965 C40.4861725,126.348965 45.6833423,127.027129 48.6204164,128.157083 C51.5565357,129.287038 57.2034331,131.545992 57.2034331,131.545992" id="Fill-76" fill="#EB8B2D"></path>
                    <path d="M57.2034331,131.545992 L57.6550703,134.935855 C57.6550703,134.935855 57.2034331,137.195764 55.6222254,138.099345 L53.5893806,135.162228 L57.2034331,131.545992 Z" id="Fill-77" fill="#D9832B"></path>
                    <path d="M54.7193329,138.099727 C54.7193329,138.099727 49.5221631,146.008453 48.3935475,146.687572 L47.2639771,147.364781 L44.5541538,144.653081 L53.5888077,135.16261 L55.6216525,138.099727 L54.7193329,138.099727 Z" id="Fill-78" fill="#D9832B"></path>
                    <path d="M45.6820056,143.975204 C45.6820056,143.975204 34.613552,138.326387 28.7403587,139.229013 C27.6107882,141.940713 28.8415712,142.463186 28.8415712,142.463186 C28.8415712,142.463186 45.4566644,148.719484 47.264168,147.364112 C47.264168,147.364112 47.9421013,145.783322 45.6820056,143.975204" id="Fill-79" fill="#C27626"></path>
                    <path d="M25.5091952,142.662814 C25.5091952,142.662814 25.0079065,158.586289 30.1936183,160.839511 C35.3821946,163.093689 29.8804323,144.381147 29.8804323,144.381147 L25.5091952,142.662814 Z" id="Fill-80" fill="#9D7376"></path>
                    <path d="M30.2218815,135.397006 C30.0290047,131.491356 30.2390685,127.645882 30.091069,123.602689 C30.0165918,121.570108 29.7272767,119.476397 30.601906,117.49635 C32.5497705,113.091152 36.6421956,102.979826 37.5244636,100.495455 C39.9564298,93.6651046 38.3981382,94.9421538 36.6622472,88.4031274 C35.5765992,84.3159972 37.737392,80.8334833 36.6622472,76.7434876 C34.503364,77.17522 30.8425246,79.1304328 28.4592551,84.5165808 C26.3595717,89.2618164 21.4736783,106.841539 19.4389238,110.380407 C18.1202959,112.676612 17.4509562,115.70638 17.4509562,118.361725 C17.4509562,121.095394 18.03818,123.832882 18.2043214,126.568461 C18.4726302,130.995628 19.7521098,135.347338 21.0965183,139.629321 C22.0475344,142.658134 22.2413661,146.275325 25.8983862,147.937304 C33.2229296,151.266992 31.7123797,145.32303 30.9532855,141.56352 C30.5293385,139.468854 30.3211844,137.424811 30.2218815,135.397006" id="Fill-81" fill="#C8CBD4"></path>
                    <path d="M75.7583701,91.0155859 C75.6743446,92.5046806 75.3134167,94.2526237 74.4034585,96.109455 C72.7945606,99.1124784 71.462565,104.22163 68.9322509,106.442377 C67.2307339,107.936248 67.2927982,111.260205 66.2758984,112.927915 C66.2758984,112.927915 69.3686107,116.632026 69.5337972,116.632026 C70.5115488,116.632026 72.2006529,112.227782 73.8716151,110.727226 C76.5632965,108.311626 78.9293789,105.568406 79.7428988,101.913008 C80.3005227,99.3990265 78.6161929,91.7787589 75.915918,87.0488059" id="Fill-82" fill="#1A1919"></path>
                    <path d="M39.5025964,15.7687387 C54.3607922,13.1630619 68.5171838,23.0986377 71.1210203,37.9609294 C73.7267665,52.8241764 63.7917028,66.9844254 48.9363715,69.5910575 C34.0781757,72.1957792 19.9227389,62.2611585 17.3189024,47.3969565 C14.7122014,32.5356198 24.6453555,18.3744156 39.5025964,15.7687387" id="Fill-83" fill="#3C434D"></path>
                    <path d="M38.0582167,35.6974864 C47.8214101,33.9858395 57.1234178,40.514359 58.835438,50.2799163 C60.5474581,60.0473839 54.0192475,69.3515988 44.2560542,71.0642009 C34.4938157,72.7758479 25.1918079,66.2473284 23.4797878,56.4817711 C21.7677676,46.7152587 28.2950234,37.4091334 38.0582167,35.6974864" id="Fill-84" fill="#9D7376"></path>
                    <path d="M49.1255244,5.11841664 C55.2727556,4.04004084 61.1306716,8.15105008 62.2086809,14.3013262 C63.2866903,20.4516024 59.1761233,26.3105547 53.0288921,27.3889305 C46.8797513,28.4673063 41.0237449,24.356297 39.9447808,18.2060209 C38.8677263,12.0557447 42.9782933,6.19679244 49.1255244,5.11841664" id="Fill-85" fill="#3C434D"></path>
                    <path d="M35.176905,12.82398 C34.178147,7.12453948 37.6442,1.58938647 43.2080267,-6.562712e-13 C42.817499,0.027699644 42.4260164,0.075457651 42.0383532,0.144229181 C35.891122,1.22260498 31.7796002,7.08155728 32.8576095,13.2318334 C33.9356188,19.3821096 39.7935348,23.4931188 45.940766,22.4156982 C46.3293841,22.3478818 46.7132279,22.2590519 47.090388,22.152074 C41.319362,22.5503757 36.1766178,18.5253309 35.176905,12.82398" id="Fill-86" fill="#3C434D"></path>
                    <path d="M22.4880956,41.4839421 C23.0247131,35.2629841 31.8626709,30.9466154 42.2264558,31.8435108 C52.5911955,32.7375407 60.5583432,38.5067079 60.0207708,44.7276659 C59.4831984,50.9476688 50.6461955,55.2640374 40.2814558,54.3690524 C29.916716,53.4731122 21.951478,47.7049001 22.4880956,41.4839421" id="Fill-87" fill="#3C434D"></path>
                    <path d="M59.3686181,46.0298357 C60.2260604,45.8798756 61.1627541,47.1464179 61.4625725,48.8599752 C61.7633456,50.5744877 61.3136181,52.0836407 60.4561758,52.234556 C59.5987335,52.3845162 58.6620398,51.1179738 58.3612666,49.4034614 C58.0614483,47.6908592 58.5130855,46.1797959 59.3686181,46.0298357" id="Fill-88" fill="#9D7376"></path>
                    <path d="M67.9788476,69.5893382 C67.9788476,69.5893382 68.754174,68.2502037 70.1921563,70.4088656 C70.9111475,71.2732855 71.4162555,73.6124727 71.4162555,73.6124727 C71.4162555,73.6124727 70.4795618,68.1059745 69.1848048,68.2502037 C67.889093,68.3944328 67.9788476,69.5893382 67.9788476,69.5893382" id="Fill-89" fill="#1A1919"></path>
                    <path d="M51.6422799,111.797387 C49.5234999,107.330103 47.1669658,101.752923 47.1669658,99.0565061 C47.1669658,94.1613103 49.4700291,78.6141687 63.2845896,67.6747197 C64.7235268,66.8102997 67.0256353,67.3862613 67.0256353,67.3862613 C67.0256353,67.3862613 69.0412931,67.3862613 69.3286986,68.8256876 C69.3286986,68.8256876 58.9677782,75.4468577 55.514138,88.1161018 C54.434219,95.0257303 55.9466785,104.364331 56.2827806,110.181256 L51.6422799,111.797387 Z" id="Fill-90" fill="#1A1919"></path>
                </g>
                <g id="Group-125" transform="translate(192.922973, 2.149458)">
                    <path d="M53.150876,120.792784 L66.5373764,120.792784 L99.5232717,107.880489 C99.5232717,107.880489 122.947885,98.315074 121.036157,116.488392 C119.125311,134.660828 115.778686,159.050034 115.778686,159.050034 C115.778686,159.050034 105.259336,154.267767 99.5232717,155.703152 C93.786326,157.137656 97.6106627,126.530798 97.6106627,126.530798 C97.6106627,126.530798 50.7614368,149.006745 46.4576258,146.137738 C42.1555776,143.268731 41.1992731,123.183917 41.1992731,123.183917 L53.150876,120.792784 Z" id="Fill-97" fill="#3C434D"></path>
                    <path d="M53.150876,120.792784 L66.5373764,120.792784 L99.5232717,107.880489 C99.5232717,107.880489 122.947885,98.315074 121.036157,116.488392 C119.125311,134.660828 115.778686,159.050034 115.778686,159.050034 C115.778686,159.050034 105.259336,154.267767 99.5232717,155.703152 C93.786326,157.137656 97.6106627,126.530798 97.6106627,126.530798 C97.6106627,126.530798 50.7614368,149.006745 46.4576258,146.137738 C42.1555776,143.268731 41.1992731,123.183917 41.1992731,123.183917 L53.150876,120.792784 Z" id="Fill-99" fill="#1A1919"></path>
                    <path d="M74.2404313,78.8583738 L90.4403179,102.141063 L128.205973,133.704551 C128.205973,133.704551 163.104477,141.833698 158.325599,147.572594 C153.544076,153.310609 124.382518,141.833698 124.382518,141.833698 C124.382518,141.833698 80.8781542,110.271093 79.4441381,107.880841 C78.010122,105.488826 62.2341824,83.0128796 62.2341824,83.0128796 L74.2404313,78.8583738 Z" id="Fill-101" fill="#9D7376"></path>
                    <path d="M74.2404313,78.8583738 L90.4403179,102.141063 L128.205973,133.704551 C128.205973,133.704551 163.104477,141.833698 158.325599,147.572594 C153.544076,153.310609 124.382518,141.833698 124.382518,141.833698 C124.382518,141.833698 80.8781542,110.271093 79.4441381,107.880841 C78.010122,105.488826 62.2341824,83.0128796 62.2341824,83.0128796 L74.2404313,78.8583738 Z" id="Fill-103" fill="#9D7376"></path>
                    <path d="M64.6244148,60.05756 L75.1420017,80.6211292 C75.1420017,80.6211292 72.7516811,90.663536 68.9273445,91.6201656 C65.1030078,92.5767952 48.8484752,79.1866256 48.8484752,79.1866256 L64.6244148,60.05756 Z" id="Fill-105" fill="#C8CBD4"></path>
                    <path d="M64.6244148,60.05756 L75.1420017,80.6211292 C75.1420017,80.6211292 72.7516811,90.663536 68.9273445,91.6201656 C65.1030078,92.5767952 48.8484752,79.1866256 48.8484752,79.1866256 L64.6244148,60.05756 Z" id="Fill-107" fill="#D0D2D7"></path>
                    <path d="M71.7959936,10.322783 C83.6762042,10.322783 93.3088789,19.956969 93.3088789,31.8421001 C93.3088789,43.7272312 83.6762042,53.3622989 71.7959936,53.3622989 C59.9149016,53.3622989 50.2831083,43.7272312 50.2831083,31.8421001 C50.2831083,19.956969 59.9149016,10.322783 71.7959936,10.322783" id="Fill-109" fill="#9D7376"></path>
                    <path d="M70.3611843,50.9711657 C70.3611843,50.9711657 63.1902225,63.4055873 61.7562064,70.1002313 C60.3221903,76.7957569 40.2433211,56.7100617 40.2433211,56.7100617 L37.6141447,49.7755991 C37.6141447,49.7755991 56.4978537,40.9287589 55.0638376,33.7553593 C53.6289401,26.5819597 70.3611843,50.9711657 70.3611843,50.9711657" id="Fill-111" fill="#9D7376"></path>
                    <path d="M35.7822707,75.0466677 L64.1250212,83.8820459 L78.0994065,53.0979693 C78.0994065,53.0979693 85.2694869,21.5062681 90.528721,28.6258849 C95.7879551,35.7446199 85.7471984,56.212967 85.7471984,56.212967 C85.7471984,56.212967 81.3349769,87.4431768 70.8182714,96.7864063 C60.2998031,106.131399 40.0852003,96.4046362 40.0852003,96.4046362 L35.7822707,75.0466677 Z" id="Fill-113" fill="#A4797F"></path>
                    <path d="M47.8926996,128.443352 L53.6287639,137.530893 L87.8671096,126.754923 C95.3782866,124.391122 103.616608,125.261347 110.279891,129.459937 C116.255692,133.225619 120.080029,139.203452 111.475051,148.051174 C94.2642139,165.745736 82.7912039,156.180321 82.7912039,156.180321 C82.7912039,156.180321 24.9457982,183.439416 15.3836344,170.049246 C5.82323345,156.658195 5.3446405,149.963551 5.3446405,149.963551 C5.3446405,149.963551 42.1557539,127.008849 47.8926996,128.443352" id="Fill-115" fill="#3C434D"></path>
                    <path d="M119.601788,160.006663 C119.601788,160.006663 134.898254,170.049952 116.733756,174.830455 C98.5666147,179.613603 85.1809956,172.918959 85.1809956,172.918959 C85.1809956,172.918959 69.405056,172.918959 69.405056,164.788048 C69.405056,156.6589 74.6642902,155.703152 74.6642902,155.703152 L90.9179413,158.094286 C90.9179413,158.094286 110.519099,152.833264 119.601788,160.006663" id="Fill-117" fill="#C8CBD4"></path>
                    <path d="M89.4435578,26.4286345 C90.907541,27.081964 92.3600662,27.8552029 93.9509691,28.0438838 C95.5436347,28.2334463 97.3566471,27.677984 98.1102327,26.2619958 C98.5165519,25.4975738 98.5632654,24.5973721 98.5817745,23.7324378 C98.6390647,21.1058944 98.4495665,18.2668646 96.7855085,16.2345777 C95.7278446,14.9411439 94.1818924,14.1264658 93.0863288,12.863891 C92.3001319,11.9592809 91.778351,10.8642265 91.2160263,9.80708469 C89.0848334,5.8024656 85.9294692,1.95478666 81.5428078,0.799777627 C79.7112864,0.31749523 77.7898635,0.34130076 75.896645,0.367751349 L64.8528703,0.523809821 C63.0645368,0.549378723 61.250643,0.57847437 59.5389902,1.09602422 C55.9843578,2.17168148 53.397488,5.16147967 51.0247951,8.02166997 C49.2514452,10.1606409 47.4736883,12.3225357 46.1427945,14.7630433 C44.2345924,18.3232925 43.269474,22.3129229 43.339985,26.3519278 C43.3258828,27.3879092 43.4589722,28.4203638 43.7374903,29.4184327 C44.0636034,30.333623 44.4655157,31.2197178 44.9423459,32.0652549 C47.0127231,36.1351188 48.2431389,41.2180402 45.9101084,45.1441892 C49.9627242,43.4883824 53.9712707,41.3176708 56.643635,37.8508803 C57.8405581,36.2991124 58.7774721,34.4837204 60.3719005,33.3454634 C61.9645662,32.2072064 64.5611313,32.1084575 65.5835398,33.7783713 C65.9343317,34.4546247 66.1158973,35.2067031 66.110609,35.9675984 C66.1846455,37.2213563 66.1828827,38.5244886 66.7152403,39.6618639 C67.245835,40.8001209 68.5123876,41.718838 69.7198873,41.3776254 C71.8017226,40.791304 71.6034106,37.5951913 73.2057715,36.1439356 C74.4229665,35.0418278 76.3020828,35.2525508 77.8656627,34.751753 C79.6892517,34.1680767 81.055401,32.5889766 81.8354282,30.8414743 C82.4268386,29.5127731 82.4189062,26.0345207 83.54003,25.3150647 C84.9449603,24.4130997 88.1408683,25.8476032 89.4435578,26.4286345" id="Fill-119" fill="#3C434D"></path>
                    <path d="M35.9070751,47.5072848 C36.8748376,47.2489507 37.8928392,47.2524775 38.8597203,47.5143383 C41.9278273,48.3378333 48.8079314,50.5200068 50.2833727,53.841319 C52.1951003,58.1448298 61.9670341,72.6609128 61.9670341,72.6609128 C61.9670341,72.6609128 56.7642087,79.0390313 54.8515997,85.2558013 C52.9389907,91.4725713 56.9757415,93.5321904 56.9757415,93.5321904 C56.9757415,93.5321904 58.8874692,123.184182 49.3261868,130.834574 C39.7649044,138.486729 35.9414492,133.225707 35.9414492,140.399106 C35.9414492,147.572506 6.30041618,170.049334 0.563470484,156.180409 C0.563470484,156.180409 3.43238402,130.3567 2.47607951,121.270041 C1.53475857,112.314753 2.91324729,56.4431753 35.9070751,47.5072848" id="Fill-121" fill="#C8CBD4"></path>
                    <path d="M41.9872327,56.5058632 C57.0994882,77.983741 59.6537467,76.5527642 62.2414979,81.6965219 C62.248549,81.772347 62.8478919,108.542988 60.6047629,105.398013 C60.2336991,104.878699 34.018616,89.0929882 29.9430842,89.3636659 C25.8675523,89.6325802 15.5094964,60.6162846 41.9872327,56.5058632" id="Fill-123" fill="#D0D2D7"></path>
                </g>
            </g>
        </g>
    </g>
</svg>