<?xml version="1.0" encoding="UTF-8"?>
<svg width="104px" height="104px" viewBox="0 0 104 104" version="1.1" xmlns="http://www.w3.org/2000/svg" xmlns:xlink="http://www.w3.org/1999/xlink">
    <title>Artboard Copy 2</title>
    <g id="Artboard-Copy-2" stroke="none" stroke-width="1" fill="none" fill-rule="evenodd">
        <g id="multiple-11" fill="#111111" fill-rule="nonzero">
            <circle id="Oval" cx="18.0869565" cy="20.3478261" r="11.3043478"></circle>
            <circle id="Oval" cx="52" cy="15.826087" r="15.826087"></circle>
            <path d="M27.7453913,78.9292174 C24.7203478,78.1718261 22.6086957,75.4655652 22.6086957,72.3478261 L22.6086957,47.4782609 C22.6086957,43.1690435 24.3450435,39.2622609 27.1485217,36.4045217 C26.4114783,36.2530435 25.6495652,36.173913 24.8695652,36.173913 L11.3043478,36.173913 C5.07113043,36.173913 0,41.2450435 0,47.4782609 L0,67.826087 C0,68.8005217 0.62173913,69.661913 1.54643478,69.9716522 L6.92730435,71.7645217 L9.05252174,95.1622609 C9.15878261,96.3243478 10.1354783,97.2173913 11.3043478,97.2173913 L24.8695652,97.2173913 C26.0384348,97.2173913 27.0151304,96.3243478 27.1213913,95.16 L28.5773913,79.1349565 L27.7453913,78.9292174 Z" id="Path"></path>
            <circle id="Oval" cx="85.9130435" cy="20.3478261" r="11.3043478"></circle>
            <path d="M76.2546087,78.9292174 C79.2796522,78.1718261 81.3913043,75.4655652 81.3913043,72.3478261 L81.3913043,47.4782609 C81.3913043,43.1690435 79.6549565,39.2622609 76.8514783,36.4045217 C77.5885217,36.2530435 78.3504348,36.173913 79.1304348,36.173913 L92.6956522,36.173913 C98.9288696,36.173913 104,41.2450435 104,47.4782609 L104,67.826087 C104,68.8005217 103.378261,69.661913 102.453565,69.9716522 L97.0726957,71.7645217 L94.9474783,95.1622609 C94.8412174,96.3243478 93.8645217,97.2173913 92.6956522,97.2173913 L79.1304348,97.2173913 C77.9615652,97.2173913 76.9848696,96.3243478 76.8786087,95.16 L75.4226087,79.1349565 L76.2546087,78.9292174 Z" id="Path"></path>
            <path d="M65.5652174,36.173913 L38.4347826,36.173913 C32.2015652,36.173913 27.1304348,41.2450435 27.1304348,47.4782609 L27.1304348,72.3478261 C27.1304348,73.3855652 27.8358261,74.289913 28.841913,74.5408696 L36.3163478,76.4083478 L38.4415652,101.926783 C38.5410435,103.100174 39.52,104 40.6956522,104 L63.3043478,104 C64.48,104 65.4589565,103.100174 65.5584348,101.926783 L67.6836522,76.4083478 L75.158087,74.5408696 C76.1641739,74.289913 76.8695652,73.3855652 76.8695652,72.3478261 L76.8695652,47.4782609 C76.8695652,41.2450435 71.7984348,36.173913 65.5652174,36.173913 Z" id="Path"></path>
        </g>
    </g>
</svg>