<?xml version="1.0" encoding="UTF-8"?>
<svg width="140px" height="88px" viewBox="0 0 140 88" version="1.1" xmlns="http://www.w3.org/2000/svg" xmlns:xlink="http://www.w3.org/1999/xlink">
    <title>Artboard Copy</title>
    <defs>
        <polygon id="path-1" points="0 0.000412145589 80.040916 0.000412145589 80.040916 86.1263062 0 86.1263062"></polygon>
        <polygon id="path-3" points="0 0.000412145589 80.040916 0.000412145589 80.040916 86.1263062 0 86.1263062"></polygon>
    </defs>
    <g id="Artboard-Copy" stroke="none" stroke-width="1" fill="none" fill-rule="evenodd">
        <g id="Group-47-Copy" transform="translate(0.500000, -20.500000)">
            <g id="Group-7" transform="translate(58.000000, 21.489894)">
                <g id="Group-3" transform="translate(0.000000, 0.060004)">
                    <mask id="mask-2" fill="white">
                        <use xlink:href="#path-1"></use>
                    </mask>
                    <g id="Clip-2"></g>
                    <path d="M17.6438315,69.6081656 C18.3089617,69.4642783 18.877662,69.3415438 19.4463623,69.2182031 C20.2819875,69.0370409 21.1167641,68.8516966 21.9534197,68.6750801 C22.8692314,68.4818566 23.7865584,68.2954213 24.7035824,68.1081375 C25.6104239,67.9229144 26.5175078,67.7390247 27.425016,67.557317 C28.1560896,67.4108841 28.8874056,67.2652998 29.6197519,67.1252915 C30.6098105,66.9360682 31.5998084,66.7462994 32.5919277,66.5686525 C33.4446448,66.4159162 34.2994227,66.2743321 35.1549278,66.1378997 C36.1197121,65.9840119 37.0849813,65.8313968 38.0527962,65.6983586 C38.467851,65.6413249 38.6075563,65.7801816 38.6052531,66.198873 C38.6021014,66.7632701 38.5849489,67.3276671 38.5702207,67.8920035 C38.5293092,69.4542777 38.4869431,71.0165519 38.4442739,72.5788262 C38.4184542,73.5262761 38.3985742,74.4739079 38.3623296,75.4209337 C38.3138419,76.6899178 38.2454136,77.958114 38.1980169,79.2270376 C38.1452865,80.6380907 38.1069206,82.0496894 38.0614633,83.4610456 C38.0367952,84.2276364 38.0164304,84.9944696 37.981398,85.7606361 C37.9687306,86.037501 38.0671,86.1525987 38.3486318,86.1213241 C38.5882218,86.0948377 38.8302967,86.0801096 39.0712806,86.078958 C40.0813404,86.0743517 41.091582,86.0710181 42.1015811,86.0810793 C42.3274732,86.0832613 42.4010534,86.0148936 42.3944469,85.7870619 C42.3573538,84.4958947 42.3387466,83.2042425 42.3022596,81.9131358 C42.2566812,80.3000707 42.1956473,78.6875511 42.1490384,77.0745466 C42.0909744,75.0669733 42.0417594,73.0592182 41.9872107,71.0515237 C41.9433293,69.4376101 41.8932657,67.8238176 41.854415,66.2097222 C41.843081,65.7362396 41.9502994,65.6741147 42.4146905,65.7469675 C43.4100827,65.9031586 44.4095358,66.0333481 45.4055341,66.1863269 C46.5214789,66.3577309 47.6374237,66.5309533 48.7497925,66.7247223 C50.0306561,66.9477052 51.3073377,67.1944471 52.58608,67.4299762 C53.3394579,67.5687723 54.0948359,67.697689 54.8465773,67.8452735 C55.9728258,68.0663168 57.0965286,68.299967 58.221383,68.5280411 C59.3940584,68.7658128 60.5663096,69.0058269 61.7399548,69.2389316 C62.0028794,69.2911772 62.270774,69.3181485 62.564549,69.3608783 C62.5489723,69.2740246 62.5472146,69.2255975 62.5313955,69.1823828 C62.1856175,68.2413575 61.8435367,67.2989381 61.48994,66.3609432 C61.0195485,65.1128088 60.5558847,63.8617045 60.0594311,62.6239949 C59.6415882,61.5818727 59.758383,61.036992 60.6191006,60.3181616 C61.9179047,59.2333095 63.2136177,58.1448815 64.5106641,57.0579688 C66.2784656,55.5764266 68.0494795,54.0987634 69.8130383,52.6123119 C71.4996229,51.1907732 73.1765706,49.7579006 74.8611551,48.3340588 C76.3914274,47.0405884 77.926791,45.7531789 79.4583361,44.4612843 C79.6473776,44.3017597 79.8266003,44.1305981 80.040916,43.9372533 C79.2577788,43.6452966 78.547555,43.4017065 77.8545443,43.116235 C77.1122579,42.8104594 76.3656683,42.502926 75.6618085,42.1208428 C75.3194246,41.9349531 74.8941267,41.7077275 74.8924903,41.2088495 C74.8913993,40.8686476 74.91334,40.5193542 74.9909203,40.1896377 C75.1541421,39.4954754 75.3619726,38.8117986 75.5493776,38.1232125 C75.8291517,37.095091 76.1089259,36.0670302 76.3854271,35.0379997 C76.654049,34.0380011 76.9168524,33.0364873 77.1853532,32.0364888 C77.4017296,31.2303199 77.6222275,30.4253026 77.841695,29.6199822 C78.0231603,28.9542459 78.2058984,28.2888126 78.4023342,27.5711338 C78.2802664,27.5943473 78.197413,27.607742 78.11559,27.6261067 C77.6548355,27.7294462 77.1943234,27.8339372 76.7338719,27.9381858 C75.7521169,28.1604414 74.7706649,28.3837273 73.788728,28.6048313 C72.9239496,28.7995701 72.060444,29.0003698 71.1931806,29.1828655 C70.4254382,29.3444508 69.6547865,29.4936717 68.8824378,29.6313769 C68.1809418,29.7564146 67.483749,29.9495169 66.758191,29.8064175 C66.1016067,29.6768341 65.6071532,29.374392 65.432355,28.6728959 C65.3548959,28.362029 65.2268883,28.0636478 65.1187607,27.7607208 C64.6909778,26.5624681 64.2654375,25.3634274 63.8311694,24.1675385 C63.7166777,23.8522472 63.573942,23.5472594 63.4361157,23.2184521 C63.3493833,23.2763949 63.3001683,23.2962143 63.2691361,23.3318527 C62.2171951,24.5385302 61.1728909,25.7518747 60.1150708,26.9532791 C58.2040487,29.1237105 56.2888445,31.2905053 54.3663065,33.4506937 C53.9513729,33.9169031 53.4898304,34.3332913 52.8839158,34.5573652 C52.4332831,34.7240417 52.0228346,34.5681537 52.0082277,34.1511593 C51.9896811,33.6204007 52.005682,33.0809748 52.0823532,32.5563377 C52.1796317,31.8901771 52.351157,31.2348656 52.4931654,30.5753721 C52.7074205,29.5808284 52.9188876,28.5856786 53.1404764,27.5927714 C53.3680657,26.5733172 53.6095951,25.5568934 53.8390632,24.5378029 C54.0730771,23.4979838 54.2984843,22.4561646 54.5302556,21.4158 C54.7074176,20.6204196 54.8938529,19.8271 55.066954,19.0308711 C55.3367276,17.7904947 55.5957732,16.5477545 55.8645163,15.3070751 C56.1758075,13.8697173 56.4939475,12.4338142 56.8057841,10.9965171 C56.8525748,10.7808074 56.8808795,10.5610974 56.9120328,10.3772077 C54.6068056,11.6514649 52.3122456,12.9295405 50.0066547,14.1873725 C49.4626831,14.4841779 48.9210754,14.7983177 48.2759463,14.8708674 C47.8643462,14.9171732 47.6196044,14.7900748 47.4317751,14.4207196 C46.3568631,12.3078674 45.2671623,10.2025307 44.1812193,8.09531518 C42.9481766,5.70268881 41.7143461,3.31054732 40.4795458,0.918890713 C40.3314158,0.632025261 40.1749823,0.349463094 39.9877591,0.000412145589 C39.7014391,0.608084451 39.4589399,1.13217606 39.2084403,1.65244925 C38.2539596,3.63535441 37.3174193,5.62716919 36.3353006,7.59631597 C35.2459029,9.78056637 34.1240183,11.948937 32.9938909,14.1123983 C32.690479,14.6932206 32.1782669,15.1200943 31.3023363,14.7531635 C30.8310357,14.5557579 30.364099,14.3382905 29.9212243,14.0844573 C27.9951104,12.9805132 26.1233633,11.790564 24.3290147,10.4812139 C24.13567,10.3402358 23.934446,10.2101069 23.6778247,10.0344602 C23.7244335,10.258534 23.7523746,10.4047245 23.7855281,10.549824 C24.0098444,11.5321851 24.2417975,12.5128492 24.458477,13.496968 C24.6532157,14.3819294 24.8298322,15.2710123 25.0177221,16.1575496 C25.2055514,17.0437838 25.4078058,17.9271088 25.5848466,18.815525 C25.7716455,19.7527926 25.9392918,20.6939997 26.1094837,21.6344796 C26.3425884,22.9230407 26.5622377,24.2140261 26.8024338,25.5011932 C27.0295381,26.7181742 27.2769467,27.9314581 27.5133243,29.1468027 C27.7306705,30.2645052 27.978867,31.3777832 28.1446344,32.5032437 C28.2131233,32.9680591 28.1418463,33.4660885 28.060387,33.9362981 C27.99408,34.3194117 27.6684244,34.4689963 27.2961599,34.347474 C27.0886931,34.279773 26.8855296,34.1798883 26.7020036,34.0612752 C25.6859435,33.4044485 24.8553489,32.5323969 24.0355428,31.6618 C22.8068641,30.3571167 21.6093993,29.0215832 20.434542,27.667988 C19.4775157,26.5653773 18.5726743,25.4174306 17.645771,24.2886972 C17.4330311,24.029591 17.2245945,23.7669088 16.986338,23.4713761 C16.915546,23.6305977 16.8639672,23.7377555 16.8196009,23.8478227 C16.5909813,24.4156138 16.3683015,24.9859506 16.1358635,25.5522265 C15.751962,26.4876152 15.3275732,27.4080938 14.9842196,28.3579682 C14.6134098,29.3836046 13.8962159,29.6738642 13.0242855,29.6941078 C11.7074803,29.7245945 10.4501332,29.3505118 9.17114851,29.1298926 C8.2386085,28.9690953 7.31558421,28.7524158 6.389287,28.5559799 C5.51299274,28.3700901 4.63791068,28.1783818 3.76240435,27.9887948 C3.19643148,27.8663028 2.63057983,27.7430833 2.00114867,27.606348 C2.06709196,27.9561263 2.11376139,28.2599018 2.18255333,28.5585861 C2.40820304,29.5384623 2.64239871,30.5163989 2.87235171,31.4953053 C3.10497153,32.4855457 3.33025758,33.4774831 3.57021117,34.4659658 C3.83125691,35.5416052 4.09599984,36.6165173 4.3766225,37.6871867 C4.67203391,38.8143442 4.99059821,39.9353802 5.29104022,41.0611438 C5.31970858,41.1684229 5.31437494,41.2969153 5.2858884,41.4052854 C5.16618435,41.8611305 4.79901112,42.1137515 4.43953531,42.3512201 C3.32710588,43.0859302 2.08091096,43.5105614 0.810957057,43.8756739 C0.564336409,43.9465872 0.320867463,44.028592 0,44.1293253 C0.124128554,44.2315737 0.191647699,44.2875164 0.259530502,44.3430349 C2.49505667,46.1733856 4.73015856,48.0041605 6.96623021,49.8337233 C9.15623853,51.6255868 11.3452771,53.4187232 13.5385583,55.2065865 C15.4665512,56.7781946 17.3972714,58.3464692 19.3320525,59.9097738 C20.1693142,60.5862987 20.5759443,61.7664291 20.2407729,62.7597605 C19.9300879,63.6803604 19.5755821,64.5865959 19.225622,65.4934374 C18.7630492,66.6918719 18.2852027,67.8843667 17.8165083,69.0803162 C17.760505,69.2232337 17.7203814,69.3723335 17.6438315,69.6081656" id="Fill-1" fill="#FEFEFE" mask="url(#mask-2)"></path>
                </g>
                <g id="Group-6" transform="translate(0.000000, 0.060004)">
                    <mask id="mask-4" fill="white">
                        <use xlink:href="#path-3"></use>
                    </mask>
                    <g id="Clip-5"></g>
                    <path d="M17.6438315,69.6081656 C17.7203814,69.3723335 17.760505,69.2232337 17.8165083,69.0803162 C18.2852027,67.8843667 18.7630492,66.6918719 19.225622,65.4934374 C19.5755821,64.5865959 19.9300879,63.6803604 20.2407729,62.7597605 C20.5759443,61.7664291 20.1693142,60.5862987 19.3320525,59.9097738 C17.3972714,58.3464692 15.4665512,56.7781946 13.5385583,55.2065865 C11.3452771,53.4187232 9.15623853,51.6255868 6.96623021,49.8337233 C4.73015856,48.0041605 2.49505667,46.1733856 0.259530502,44.3430349 C0.191647699,44.2875164 0.124128554,44.2315737 0,44.1293253 C0.320867463,44.028592 0.564336409,43.9465872 0.810957057,43.8756739 C2.08091096,43.5105614 3.32710588,43.0859302 4.43953531,42.3512201 C4.79901112,42.1137515 5.16618435,41.8611305 5.2858884,41.4052854 C5.31437494,41.2969153 5.31970858,41.1684229 5.29104022,41.0611438 C4.99059821,39.9353802 4.67203391,38.8143442 4.3766225,37.6871867 C4.09599984,36.6165173 3.83125691,35.5416052 3.57021117,34.4659658 C3.33025758,33.4774831 3.10497153,32.4855457 2.87235171,31.4953053 C2.64239871,30.5163989 2.40820304,29.5384623 2.18255333,28.5585861 C2.11376139,28.2599018 2.06709196,27.9561263 2.00114867,27.606348 C2.63057983,27.7430833 3.19643148,27.8663028 3.76240435,27.9887948 C4.63791068,28.1783818 5.51299274,28.3700901 6.389287,28.5559799 C7.31558421,28.7524158 8.2386085,28.9690953 9.17114851,29.1298926 C10.4501332,29.3505118 11.7074803,29.7245945 13.0242855,29.6941078 C13.8962159,29.6738642 14.6134098,29.3836046 14.9842196,28.3579682 C15.3275732,27.4080938 15.751962,26.4876152 16.1358635,25.5522265 C16.3683015,24.9859506 16.5909813,24.4156138 16.8196009,23.8478227 C16.8639672,23.7377555 16.915546,23.6305977 16.986338,23.4713761 C17.2245945,23.7669088 17.4330311,24.029591 17.645771,24.2886972 C18.5726743,25.4174306 19.4775157,26.5653773 20.434542,27.667988 C21.6093993,29.0215832 22.8068641,30.3571167 24.0355428,31.6618 C24.8553489,32.5323969 25.6859435,33.4044485 26.7020036,34.0612752 C26.8855296,34.1798883 27.0886931,34.279773 27.2961599,34.347474 C27.6684244,34.4689963 27.99408,34.3194117 28.060387,33.9362981 C28.1418463,33.4660885 28.2131233,32.9680591 28.1446344,32.5032437 C27.978867,31.3777832 27.7306705,30.2645052 27.5133243,29.1468027 C27.2769467,27.9314581 27.0295381,26.7181742 26.8024338,25.5011932 C26.5622377,24.2140261 26.3425884,22.9230407 26.1094837,21.6344796 C25.9392918,20.6939997 25.7716455,19.7527926 25.5848466,18.815525 C25.4078058,17.9271088 25.2055514,17.0437838 25.0177221,16.1575496 C24.8298322,15.2710123 24.6532157,14.3819294 24.458477,13.496968 C24.2417975,12.5128492 24.0098444,11.5321851 23.7855281,10.549824 C23.7523746,10.4047245 23.7244335,10.258534 23.6778247,10.0344602 C23.934446,10.2101069 24.13567,10.3402358 24.3290147,10.4812139 C26.1233633,11.790564 27.9951104,12.9805132 29.9212243,14.0844573 C30.364099,14.3382905 30.8310357,14.5557579 31.3023363,14.7531635 C32.1782669,15.1200943 32.690479,14.6932206 32.9938909,14.1123983 C34.1240183,11.948937 35.2459029,9.78056637 36.3353006,7.59631597 C37.3174193,5.62716919 38.2539596,3.63535441 39.2084403,1.65244925 C39.4589399,1.13217606 39.7014391,0.608084451 39.9877591,0.000412145589 C40.1749823,0.349463094 40.3314158,0.632025261 40.4795458,0.918890713 C41.7143461,3.31054732 42.9481766,5.70268881 44.1812193,8.09531518 C45.2671623,10.2025307 46.3568631,12.3078674 47.4317751,14.4207196 C47.6196044,14.7900748 47.8643462,14.9171732 48.2759463,14.8708674 C48.9210754,14.7983177 49.4626831,14.4841779 50.0066547,14.1873725 C52.3122456,12.9295405 54.6068056,11.6514649 56.9120328,10.3772077 C56.8808795,10.5610974 56.8525748,10.7808074 56.8057841,10.9965171 C56.4939475,12.4338142 56.1758075,13.8697173 55.8645163,15.3070751 C55.5957732,16.5477545 55.3367276,17.7904947 55.066954,19.0308711 C54.8938529,19.8271 54.7074176,20.6204196 54.5302556,21.4158 C54.2984843,22.4561646 54.0730771,23.4979838 53.8390632,24.5378029 C53.6095951,25.5568934 53.3680657,26.5733172 53.1404764,27.5927714 C52.9188876,28.5856786 52.7074205,29.5808284 52.4931654,30.5753721 C52.351157,31.2348656 52.1796317,31.8901771 52.0823532,32.5563377 C52.005682,33.0809748 51.9896811,33.6204007 52.0082277,34.1511593 C52.0228346,34.5681537 52.4332831,34.7240417 52.8839158,34.5573652 C53.4898304,34.3332913 53.9513729,33.9169031 54.3663065,33.4506937 C56.2888445,31.2905053 58.2040487,29.1237105 60.1150708,26.9532791 C61.1728909,25.7518747 62.2171951,24.5385302 63.2691361,23.3318527 C63.3001683,23.2962143 63.3493833,23.2763949 63.4361157,23.2184521 C63.573942,23.5472594 63.7166777,23.8522472 63.8311694,24.1675385 C64.2654375,25.3634274 64.6909778,26.5624681 65.1187607,27.7607208 C65.2268883,28.0636478 65.3548959,28.362029 65.432355,28.6728959 C65.6071532,29.374392 66.1016067,29.6768341 66.758191,29.8064175 C67.483749,29.9495169 68.1809418,29.7564146 68.8824378,29.6313769 C69.6547865,29.4936717 70.4254382,29.3444508 71.1931806,29.1828655 C72.060444,29.0003698 72.9239496,28.7995701 73.788728,28.6048313 C74.7706649,28.3837273 75.7521169,28.1604414 76.7338719,27.9381858 C77.1943234,27.8339372 77.6548355,27.7294462 78.11559,27.6261067 C78.197413,27.607742 78.2802664,27.5943473 78.4023342,27.5711338 C78.2058984,28.2888126 78.0231603,28.9542459 77.841695,29.6199822 C77.6222275,30.4253026 77.4017296,31.2303199 77.1853532,32.0364888 C76.9168524,33.0364873 76.654049,34.0380011 76.3854271,35.0379997 C76.1089259,36.0670302 75.8291517,37.095091 75.5493776,38.1232125 C75.3619726,38.8117986 75.1541421,39.4954754 74.9909203,40.1896377 C74.91334,40.5193542 74.8913993,40.8686476 74.8924903,41.2088495 C74.8941267,41.7077275 75.3194246,41.9349531 75.6618085,42.1208428 C76.3656683,42.502926 77.1122579,42.8104594 77.8545443,43.116235 C78.547555,43.4017065 79.2577788,43.6452966 80.040916,43.9372533 C79.8266003,44.1305981 79.6473776,44.3017597 79.4583361,44.4612843 C77.926791,45.7531789 76.3914274,47.0405884 74.8611551,48.3340588 C73.1765706,49.7579006 71.4996229,51.1907732 69.8130383,52.6123119 C68.0494795,54.0987634 66.2784656,55.5764266 64.5106641,57.0579688 C63.2136177,58.1448815 61.9179047,59.2333095 60.6191006,60.3181616 C59.758383,61.036992 59.6415882,61.5818727 60.0594311,62.6239949 C60.5558847,63.8617045 61.0195485,65.1128088 61.48994,66.3609432 C61.8435367,67.2989381 62.1856175,68.2413575 62.5313955,69.1823828 C62.5472146,69.2255975 62.5489723,69.2740246 62.564549,69.3608783 C62.270774,69.3181485 62.0028794,69.2911772 61.7399548,69.2389316 C60.5663096,69.0058269 59.3940584,68.7658128 58.221383,68.5280411 C57.0965286,68.299967 55.9728258,68.0663168 54.8465773,67.8452735 C54.0948359,67.697689 53.3394579,67.5687723 52.58608,67.4299762 C51.3073377,67.1944471 50.0306561,66.9477052 48.7497925,66.7247223 C47.6374237,66.5309533 46.5214789,66.3577309 45.4055341,66.1863269 C44.4095358,66.0333481 43.4100827,65.9031586 42.4146905,65.7469675 C41.9502994,65.6741147 41.843081,65.7362396 41.854415,66.2097222 C41.8932657,67.8238176 41.9433293,69.4376101 41.9872107,71.0515237 C42.0417594,73.0592182 42.0909744,75.0669733 42.1490384,77.0745466 C42.1956473,78.6875511 42.2566812,80.3000707 42.3022596,81.9131358 C42.3387466,83.2042425 42.3573538,84.4958947 42.3944469,85.7870619 C42.4010534,86.0148936 42.3274732,86.0832613 42.1015811,86.0810793 C41.091582,86.0710181 40.0813404,86.0743517 39.0712806,86.078958 C38.8302967,86.0801096 38.5882218,86.0948377 38.3486318,86.1213241 C38.0671,86.1525987 37.9687306,86.037501 37.981398,85.7606361 C38.0164304,84.9944696 38.0367952,84.2276364 38.0614633,83.4610456 C38.1069206,82.0496894 38.1452865,80.6380907 38.1980169,79.2270376 C38.2454136,77.958114 38.3138419,76.6899178 38.3623296,75.4209337 C38.3985742,74.4739079 38.4184542,73.5262761 38.4442739,72.5788262 C38.4869431,71.0165519 38.5293092,69.4542777 38.5702207,67.8920035 C38.5849489,67.3276671 38.6021014,66.7632701 38.6052531,66.198873 C38.6075563,65.7801816 38.467851,65.6413249 38.0527962,65.6983586 C37.0849813,65.8313968 36.1197121,65.9840119 35.1549278,66.1378997 C34.2994227,66.2743321 33.4446448,66.4159162 32.5919277,66.5686525 C31.5998084,66.7462994 30.6098105,66.9360682 29.6197519,67.1252915 C28.8874056,67.2652998 28.1560896,67.4108841 27.425016,67.557317 C26.5175078,67.7390247 25.6104239,67.9229144 24.7035824,68.1081375 C23.7865584,68.2954213 22.8692314,68.4818566 21.9534197,68.6750801 C21.1167641,68.8516966 20.2819875,69.0370409 19.4463623,69.2182031 C18.877662,69.3415438 18.3089617,69.4642783 17.6438315,69.6081656" id="Fill-4" fill="#231F20" mask="url(#mask-4)"></path>
                </g>
            </g>
            <text id="9" font-family="CenturyGothic, Century Gothic" font-size="104" font-weight="normal" fill="#000000">
                <tspan x="0" y="105">9</tspan>
            </text>
            <text id="th" font-family="CenturyGothic, Century Gothic" font-size="26" font-weight="normal" fill="#FFFFFF">
                <tspan x="86" y="77.575568">th</tspan>
            </text>
        </g>
    </g>
</svg>