<?xml version="1.0" encoding="UTF-8"?>
<svg width="88px" height="88px" viewBox="0 0 88 88" version="1.1" xmlns="http://www.w3.org/2000/svg" xmlns:xlink="http://www.w3.org/1999/xlink">
    <title>Artboard Copy 5</title>
    <g id="Artboard-Copy-5" stroke="none" stroke-width="1" fill="none" fill-rule="evenodd">
        <g id="Group-19" transform="translate(44.466252, 44.466252) rotate(-315.000000) translate(-44.466252, -44.466252) translate(30.466252, 13.966252)" stroke="#000000" stroke-width="3.9">
            <path d="M26.0380254,30.5878441 L26.0382353,46.7136153 C26.0382353,50.0395066 24.6901515,53.050536 22.5105949,55.2300926 C20.3310383,57.4096492 17.3200089,58.757733 13.9941176,58.757733 C10.6682264,58.757733 7.65719698,57.4096492 5.47764039,55.2300926 C3.29808379,53.050536 1.95,50.0395066 1.95,46.7136153 L1.95,46.7136153 L1.95,30.5878441 L26.0380254,30.5878441 Z" id="Combined-Shape"></path>
            <path d="M26.0380254,1.95 L26.0382353,18.0757712 C26.0382353,21.4016624 24.6901515,24.4126918 22.5105949,26.5922484 C20.3310383,28.771805 17.3200089,30.1198888 13.9941176,30.1198888 C10.6682264,30.1198888 7.65719698,28.771805 5.47764039,26.5922484 C3.29808379,24.4126918 1.95,21.4016624 1.95,18.0757712 L1.95,18.0757712 L1.95,1.95 L26.0380254,1.95 Z" id="Combined-Shape" fill="#000000" transform="translate(13.994118, 16.034944) rotate(-180.000000) translate(-13.994118, -16.034944) "></path>
        </g>
    </g>
</svg>