<?xml version="1.0" encoding="UTF-8"?>
<svg width="34px" height="33px" viewBox="0 0 34 33" version="1.1" xmlns="http://www.w3.org/2000/svg" xmlns:xlink="http://www.w3.org/1999/xlink">
    <title>ic_email_48px</title>
    <g id="Symbols" stroke="none" stroke-width="1" fill="none" fill-rule="evenodd">
        <g id="Contact-Hover" transform="translate(-33.000000, -21.000000)" fill-rule="nonzero">
            <g id="ic_email_48px" transform="translate(33.500000, 21.000000)">
                <rect id="Rectangle" fill="#000000" x="0" y="0" width="33" height="33" rx="16.5"></rect>
                <g id="Group" transform="translate(9.625000, 11.000000)" fill="#FFFFFF">
                    <path d="M12.375,0 L1.375,0 C0.6153125,0 0.006875,0.6153125 0.006875,1.375 L0,9.625 C0,10.3846875 0.6153125,11 1.375,11 L12.375,11 C13.1346875,11 13.75,10.3846875 13.75,9.625 L13.75,1.375 C13.75,0.6153125 13.1346875,0 12.375,0 Z M12.375,2.75 L6.875,6.1875 L1.375,2.75 L1.375,1.375 L6.875,4.8125 L12.375,1.375 L12.375,2.75 Z" id="Shape"></path>
                </g>
            </g>
        </g>
    </g>
</svg>