<?xml version="1.0" encoding="UTF-8"?>
<svg width="34px" height="33px" viewBox="0 0 34 33" version="1.1" xmlns="http://www.w3.org/2000/svg" xmlns:xlink="http://www.w3.org/1999/xlink">
    <title>Fill 183</title>
    <g id="Symbols" stroke="none" stroke-width="1" fill="none" fill-rule="evenodd">
        <g id="Contact-Hover" transform="translate(-183.000000, -21.000000)" fill="#000000">
            <path d="M204.284844,32.156 L202.731781,32.157 C201.513875,32.157 201.277719,32.718 201.277719,33.541 L201.277719,35.357 L204.18275,35.357 L203.804281,38.202 L201.277719,38.202 L201.277719,45.5 L198.248938,45.5 L198.248938,38.202 L195.716187,38.202 L195.716187,35.357 L198.248938,35.357 L198.248938,33.26 C198.248938,30.825 199.782406,29.5 202.02125,29.5 C203.09375,29.5 204.015687,29.577 204.284844,29.612 L204.284844,32.156 Z M200,21.5 C190.887875,21.5 183.5,28.663 183.5,37.5 C183.5,46.336 190.887875,53.5 200,53.5 C209.113156,53.5 216.5,46.336 216.5,37.5 C216.5,28.663 209.113156,21.5 200,21.5 L200,21.5 Z" id="Fill-183"></path>
        </g>
    </g>
</svg>