<?xml version="1.0" encoding="UTF-8"?>
<svg width="34px" height="33px" viewBox="0 0 34 33" version="1.1" xmlns="http://www.w3.org/2000/svg" xmlns:xlink="http://www.w3.org/1999/xlink">
    <title>Fill 209</title>
    <g id="Symbols" stroke="none" stroke-width="1" fill="none" fill-rule="evenodd">
        <g id="Contact-Hover" transform="translate(-108.000000, -21.000000)" fill="#000000">
            <path d="M133.25,45.7345312 L129.831406,45.7345312 L129.831406,40.3844062 C129.831406,39.10875 129.808719,37.4680312 128.054563,37.4680312 C126.275656,37.4680312 126.004437,38.8581562 126.004437,40.2936562 L126.004437,45.7345312 L122.588938,45.7345312 L122.588938,34.7331562 L125.86625,34.7331562 L125.86625,36.23775 L125.913688,36.23775 C126.3695,35.3725312 127.485312,34.459875 129.148719,34.459875 C132.610625,34.459875 133.25,36.7379062 133.25,39.7006875 L133.25,45.7345312 Z M118.734125,33.230625 C117.635844,33.230625 116.75,32.3416875 116.75,31.2475312 C116.75,30.153375 117.635844,29.2644375 118.734125,29.2644375 C119.82725,29.2644375 120.715156,30.153375 120.715156,31.2475312 C120.715156,32.3416875 119.82725,33.230625 118.734125,33.230625 L118.734125,33.230625 Z M120.443937,45.7345312 L117.021219,45.7345312 L117.021219,34.7331562 L120.443937,34.7331562 L120.443937,45.7345312 Z M125,21 C115.886844,21 108.5,28.3868437 108.5,37.5 C108.5,46.612125 115.886844,54 125,54 C134.113156,54 141.5,46.612125 141.5,37.5 C141.5,28.3868437 134.113156,21 125,21 L125,21 Z" id="Fill-209"></path>
        </g>
    </g>
</svg>